# xmcd
#
# Track frame offsets: 
#        183
#        13135
#        25463
#        39973
#        54765
#        66308
#        79953
#        92883
#        109185
#        125825
#        139743
#
# Disc length: 2046 seconds
#
# Revision: 3
# Processed by: cddbd v1.5.1PL0 Copyright (c) Steve Scherf et al.
# Submitted via: ExactAudioCopy v0.95a5
#
DISCID=9707fc0b
DTITLE=John Anderson - Wild and Blue
DYEAR=1982
DGENRE=Country
TTITLE0=Wild And Blue
TTITLE1=The Waltz You Saved For Me
TTITLE2=Honky Tonk Hearts
TTITLE3=The Long Black Veil
TTITLE4=She Never Looked That Good When She Was Mine
TTITLE5=Disappearing Farmer
TTITLE6=A Honky Tonk Saturday Night
TTITLE7=Goin' Down Hill
TTITLE8=The Price Of A Thin Silver Dime
TTITLE9=Swingin'
TTITLE10=If A Broken Heart Could Kill
EXTD=(c)1982 Warner Bros. Records - WEA\nupc 07599237212\nProduced by 
EXTD=Frank Jones with John Anderson
EXTT0=SONGWRITER "John Scott Sherrill"
EXTT1=SONGWRITER "Gus Kahn/ Wayne King/ Emil Flindt"
EXTT2=SONGWRITER "Bob McDill"\n    
EXTT3=SONGWRITER "Danny Dil/ Marijohn Wilkin"
EXTT4=SONGWRITER "Bob Morrison/ Johnny MacRae"
EXTT5=SONGWRITER "Sandy Pinkard/ James Cowan"
EXTT6=SONGWRITER "Sanger D. Shafer" 
EXTT7=SONGWRITER "John David Anderson/ X. Lincoln"
EXTT8=SONGWRITER "Ronald McCown"
EXTT9=SONGWRITER "John David Anderson/ Lionel A. Delmore" 
EXTT10=SONGWRITER "Norris D. Wilson/ Allen Henson/ Wayloand Holyfield"
PLAYORDER=
